<svg width="1920" height="311" viewBox="0 0 1920 311" fill="none" xmlns="http://www.w3.org/2000/svg">
<path d="M151.648 245.776C157.748 239.142 162.543 231.428 165.862 222.849L201.242 239.111C195.965 252.688 188.418 264.877 178.8 275.337C169.182 285.798 157.975 294.006 145.52 299.745C132.582 305.701 118.878 308.694 104.749 308.694C90.6199 308.694 76.8879 305.701 63.9786 299.745C51.495 294.006 40.2881 285.798 30.67 275.337C21.052 264.877 13.505 252.688 8.22785 239.111C2.78045 225.04 0 210.136 0 194.77C0 179.403 2.75208 164.468 8.22785 150.428C13.505 136.882 21.052 124.662 30.67 114.202C40.2881 103.741 51.495 95.5332 63.9786 89.7938C89.8255 77.9138 119.673 77.9138 145.548 89.7938C158.032 95.5332 169.21 103.741 178.857 114.202C188.475 124.693 196.021 136.882 201.299 150.428L165.919 166.69C162.571 158.081 157.805 150.397 151.705 143.732C145.605 137.129 138.512 131.914 130.624 128.273C114.282 120.743 95.3012 120.743 78.9874 128.273C71.1 131.883 64.007 137.098 57.9071 143.732C51.8071 150.366 47.0122 158.081 43.6644 166.69C40.203 175.576 38.4723 185.019 38.4723 194.77C38.4723 204.52 40.2314 213.963 43.6644 222.849C47.0122 231.428 51.8071 239.142 57.9071 245.776C64.007 252.411 71.1 257.625 78.9874 261.267C95.358 268.796 114.282 268.827 130.624 261.267C138.512 257.625 145.605 252.441 151.705 245.776H151.648Z" fill="#6B6C75" fill-opacity="0.3"/>
<path d="M435.897 194.75C435.897 257.575 388.884 308.675 331.147 308.675C273.411 308.675 226.398 257.575 226.398 194.75C226.398 131.925 273.382 80.8262 331.147 80.8262C388.913 80.8262 435.897 131.925 435.897 194.75ZM397.481 194.75C397.481 154.976 367.719 122.607 331.147 122.607C294.576 122.607 264.814 154.976 264.814 194.75C264.814 234.525 294.576 266.894 331.147 266.894C367.719 266.894 397.481 234.525 397.481 194.75Z" fill="#6B6C75" fill-opacity="0.3"/>
<path d="M747.583 194.753C747.583 257.578 700.599 308.677 642.834 308.677C591.651 308.677 548.98 268.501 539.929 215.643H508.72V304.45H470.305V84.9945H508.72V173.832H539.929C548.98 120.974 591.623 80.7979 642.834 80.7979C700.599 80.7979 747.583 131.897 747.583 194.722V194.753ZM709.168 194.753C709.168 154.978 679.406 122.609 642.834 122.609C606.263 122.609 576.501 154.978 576.501 194.753C576.501 234.528 606.263 266.897 642.834 266.897C679.406 266.897 709.168 234.528 709.168 194.753Z" fill="#6B6C75" fill-opacity="0.3"/>
<path d="M949.745 192.001C960.555 202.585 967.789 217.581 967.789 237.145C967.789 258.652 958.654 308.671 873.992 308.733H868.63C783.939 308.671 774.832 258.652 774.832 237.145H813.248C813.248 244.489 813.248 266.891 868.658 266.953H873.992C929.402 266.922 929.402 244.519 929.402 237.145C929.402 216.285 906.846 215.668 904.265 215.668H841.733V173.888H899.243C901.796 173.888 924.38 173.27 924.38 152.411C924.38 145.036 924.38 122.634 868.828 122.634C813.276 122.634 813.276 145.067 813.276 152.411H774.86C774.86 130.904 784.025 80.8535 868.828 80.8535C953.632 80.8535 962.796 130.904 962.796 152.411C962.796 168.765 957.746 181.91 949.802 192.001H949.745Z" fill="#6B6C75" fill-opacity="0.3"/>
<path d="M1125.76 196.182L1204.18 281.471L1177 311.001L1098.58 225.712L1020.16 311.001L992.98 281.471L1071.4 196.182L992.98 110.893L1020.16 81.332L1098.58 166.621L1177 81.332L1204.18 110.893L1125.76 196.182Z" fill="#6B6C75" fill-opacity="0.3"/>
<path d="M1335.74 82.9893C1393.51 82.9893 1440.49 134.089 1440.49 196.914V306.61H1402.07V196.914C1402.07 157.139 1372.31 124.77 1335.74 124.77C1299.17 124.77 1269.41 157.139 1269.41 196.914V306.61H1230.99V196.914C1230.99 134.089 1278 82.9893 1335.74 82.9893Z" fill="#6B6C75" fill-opacity="0.3"/>
<path d="M1639.09 213.414L1676.17 224.245C1672.65 238.532 1666.72 251.739 1658.55 263.495C1650.1 275.653 1639.63 285.743 1627.37 293.426C1615.14 301.11 1601.87 305.985 1587.94 307.868C1583.62 308.423 1579.31 308.732 1575.03 308.732C1565.92 308.732 1556.84 307.436 1547.9 304.813C1534.77 300.986 1522.65 294.568 1511.81 285.651C1500.61 276.455 1491.36 265.007 1484.29 251.708C1477.23 238.408 1472.77 223.967 1471.01 208.816C1469.34 194.19 1470.31 179.533 1473.8 165.277C1477.31 150.99 1483.21 137.814 1491.41 126.027C1499.9 113.838 1510.37 103.779 1522.62 96.0955C1534.88 88.412 1548.13 83.5675 1562.06 81.6544C1575.51 79.8647 1588.99 80.883 1602.12 84.6784C1615.26 88.5047 1627.4 94.9538 1638.21 103.841C1649.39 113.036 1658.67 124.453 1665.73 137.783L1675.32 155.896L1529.6 247.388C1531.31 249.116 1533.09 250.751 1534.97 252.325C1541.8 257.941 1549.52 262.014 1557.83 264.452C1566.17 266.889 1574.71 267.537 1583.23 266.396C1592.05 265.192 1600.42 262.137 1608.19 257.262C1615.97 252.387 1622.61 245.999 1627.97 238.316C1633.16 230.879 1636.88 222.517 1639.15 213.445H1639.09V213.414ZM1510.4 211.162L1620.42 142.073C1618.72 140.345 1616.93 138.709 1615.06 137.135C1608.22 131.519 1600.53 127.446 1592.19 125.009C1586.52 123.373 1580.76 122.54 1574.97 122.54C1572.25 122.54 1569.52 122.725 1566.8 123.095C1558 124.299 1549.61 127.354 1541.83 132.229C1534.09 137.105 1527.42 143.492 1522.08 151.175C1516.92 158.612 1513.18 167.005 1510.93 176.046C1508.69 185.087 1508.1 194.375 1509.15 203.663C1509.43 206.194 1509.86 208.724 1510.37 211.192H1510.4V211.162Z" fill="#6B6C75" fill-opacity="0.3"/>
<path d="M1815.33 80.8332C1873.04 80.8949 1920 131.932 1920 194.757C1920 257.582 1872.99 308.682 1815.25 308.682C1757.51 308.682 1710.5 257.582 1710.5 194.757V83.672C1710.5 37.6641 1744.94 0.203613 1787.25 0.203613V41.9841C1766.11 41.9841 1748.92 60.6835 1748.92 83.6412V110.641H1751.13C1751.13 110.641 1774.54 80.8023 1815.36 80.8023H1815.33V80.8332ZM1881.58 194.757C1881.58 154.983 1851.82 122.614 1815.25 122.614C1778.68 122.614 1748.92 154.983 1748.92 194.757C1748.92 234.532 1778.68 266.901 1815.25 266.901C1851.82 266.901 1881.58 234.532 1881.58 194.757Z" fill="#6B6C75" fill-opacity="0.3"/>
</svg>
